<?xml version="1.0" encoding="utf-8"?>
<svg xmlns="http://www.w3.org/2000/svg" xmlns:xlink="http://www.w3.org/1999/xlink" version="1.1" style="width:0;height:0;position:absolute;overflow:hidden;">
  <defs>
<symbol viewBox="0 0 36 36" aria-labelledby="agmsi-material-check-box-outline-blank-title" id="si-material-check-box-outline-blank"><title id="agmsi-material-check-box-outline-blank-title">icon check-box-outline-blank</title><path d="M32 4v28H4V4h28m0-4H4C1.79 0 0 1.79 0 4v28c0 2.21 1.79 4 4 4h28c2.21 0 4-1.79 4-4V4c0-2.21-1.79-4-4-4z"/></symbol>
<symbol viewBox="0 0 36 36" aria-labelledby="aglsi-material-check-box-title" id="si-material-check-box"><title id="aglsi-material-check-box-title">icon check-box</title><path d="M32 0H4C1.79 0 0 1.79 0 4v28c0 2.21 1.79 4 4 4h28c2.21 0 4-1.79 4-4V4c0-2.21-1.79-4-4-4zM14 28L4 18l2.83-2.83L14 22.34 29.17 7.17 32 10 14 28z"/></symbol>
  </defs>
</svg>
